<svg id="Black-Hole--Streamline-Openmoji" viewBox="0 0 32 32" xmlns="http://www.w3.org/2000/svg" height="32" width="32">
  <desc>Black Hole Streamline Emoji: https://streamlinehq.com</desc>
  <g id="line-supplement">
    <path fill="#000000" fill-rule="evenodd" d="M6.206533333333334 13.759688888888888c-0.16408888888888887 0.7204444444444444 -0.2508 1.470311111111111 -0.2508 2.2403555555555554 0 5.5473333333333334 4.496933333333333 10.044266666666665 10.04422222222222 10.044266666666665 0.7701777777777777 0 1.5200444444444445 -0.0867111111111111 2.2403999999999997 -0.2508 -2.094 -1.5292 -4.296133333333333 -3.4135999999999997 -6.458222222222222 -5.575688888888888 -2.162 -2.162 -4.046444444444444 -4.364177777777778 -5.5756 -6.458133333333333Zm16.45853333333333 9.75471111111111c-2.0880444444444444 -0.43266666666666664 -5.361022222222222 -2.5614222222222223 -8.489511111111112 -5.689866666666666 -3.1285333333333334 -3.1285333333333334 -5.257288888888889 -6.401511111111111 -5.689911111111111 -8.4896 1.8399555555555553 -2.0728444444444443 4.524577777777778 -3.379111111111111 7.514311111111111 -3.379111111111111 5.5473333333333334 0 10.044266666666665 4.496933333333333 10.044266666666665 10.04422222222222 0 2.989733333333333 -1.3062666666666665 5.6743999999999994 -3.3791555555555557 7.514355555555555Z" clip-rule="evenodd" stroke-width="0.4444"></path>
  </g>
  <g id="color">
    <path fill="#d22f27" stroke="#d22f27" stroke-width="0.8889" d="M3.4446666666666665 16.000044444444445c0 9.665066666666666 10.462755555555555 15.705733333333331 18.832977777777778 10.873199999999999 3.8846222222222218 -2.242755555555555 6.277644444444444 -6.387599999999999 6.277644444444444 -10.873199999999999 0 -9.665066666666666 -10.462755555555555 -15.705733333333331 -18.832977777777778 -10.873199999999999 -3.8846222222222218 2.2427999999999995 -6.277644444444444 6.387644444444444 -6.277644444444444 10.873199999999999"></path>
    <path fill="#d22f27" fill-rule="evenodd" d="M30.363422222222223 30.363555555555553c-2.4789777777777777 2.4789777777777777 -10.919333333333332 -1.9421777777777778 -18.85208888888889 -9.874933333333333C3.5785777777777774 12.555866666666665 -0.8425333333333332 4.115511111111111 1.6364444444444444 1.6365333333333332 2.796577777777778 0.47644444444444445 5.2622222222222215 0.8274666666666666 8.37048888888889 2.3424c2.1378666666666666 1.0419555555555555 4.590711111111111 1.2432888888888889 6.965733333333333 1.1196 0.21977777777777777 -0.011466666666666667 0.4410666666666666 -0.017244444444444444 0.6637333333333333 -0.017244444444444444 6.9341333333333335 0 12.555333333333333 5.6212 12.555333333333333 12.555288888888889 0 0.22266666666666665 -0.005866666666666667 0.4439111111111111 -0.01728888888888889 0.6637333333333333 -0.12364444444444445 2.375022222222222 0.07764444444444443 4.827911111111111 1.1196444444444444 6.965777777777777 1.514888888888889 3.108222222222222 1.8659555555555556 5.57391111111111 0.7057777777777777 6.734Z" clip-rule="evenodd" stroke-width="0.4444"></path>
    <path fill="#000000" d="M15.999955555555553 25.41653333333333c5.200622222222222 0 9.416488888888889 -4.215866666666666 9.416488888888889 -9.416488888888889s-4.215866666666666 -9.416444444444444 -9.416488888888889 -9.416444444444444 -9.416444444444444 4.215866666666666 -9.416444444444444 9.416444444444444 4.215866666666666 9.416488888888889 9.416444444444444 9.416488888888889Z" stroke-width="0.4444"></path>
    <path fill="#d22f27" fill-rule="evenodd" d="M4.827822222222222 2.2137333333333333c-0.22911111111111107 -0.22915555555555553 -0.5390666666666667 -0.3708888888888889 -0.8614666666666666 -0.33826666666666666 -0.6072 0.06151111111111111 -1.1024888888888889 0.2667555555555555 -1.4633777777777779 0.6276444444444443C0.1736 4.832577777777778 4.327999999999999 12.763688888888888 11.782133333333332 20.21782222222222c7.454177777777777 7.454222222222221 15.385333333333332 11.608577777777777 17.71471111111111 9.2792 0.36093333333333333 -0.36093333333333333 0.5661333333333333 -0.8562222222222222 0.6276444444444443 -1.4634222222222222 0.03266666666666666 -0.3223555555555555 -0.1091111111111111 -0.6323111111111112 -0.3382222222222222 -0.8614666666666666l-4.1745777777777775 -4.1745777777777775c-0.2913333333333333 -0.2913333333333333 -0.8455555555555555 -0.06955555555555555 -1.1368888888888888 0.2218222222222222 -1.3543555555555555 1.354311111111111 -5.965466666666666 -1.0610666666666666 -10.299288888888888 -5.394844444444445 -4.333777777777778 -4.333822222222222 -6.749155555555555 -8.944977777777778 -5.394844444444445 -10.299288888888888 0.29137777777777774 -0.29137777777777774 0.5131555555555556 -0.8455555555555555 0.2218222222222222 -1.1368888888888888l-4.174666666666667 -4.174622222222221Z" clip-rule="evenodd" stroke-width="0.4444"></path>
    <path fill="#e27022" stroke="#d22f27" stroke-width="0.2222" d="M2.635244444444444 2.635333333333333c0.14417777777777777 -0.14422222222222222 0.5282666666666667 -0.3547111111111111 1.4764444444444444 -0.2457333333333333 0.9290222222222222 0.10675555555555555 2.1603111111111106 0.5013333333333333 3.6399555555555554 1.2225333333333332 2.447511111111111 1.1928888888888889 5.177422222222222 1.3896 7.658088888888888 1.2604 0.19533333333333333 -0.010133333333333333 0.3921333333333333 -0.015288888888888888 0.5902222222222222 -0.015288888888888888 6.154 0 11.142844444444444 4.988844444444444 11.142844444444444 11.1428 0 0.1981333333333333 -0.005155555555555555 0.3949333333333333 -0.015333333333333334 0.5902666666666666 -0.12924444444444444 2.4806666666666666 0.06755555555555555 5.210533333333332 1.2604444444444443 7.658088888888888 0.7212 1.4796444444444445 1.1157777777777778 2.710888888888889 1.2225333333333332 3.639911111111111 0.10888888888888888 0.9481777777777777 -0.10151111111111111 1.332311111111111 -0.2457333333333333 1.4764888888888887 -0.15462222222222222 0.15462222222222222 -0.5875111111111111 0.38257777777777774 -1.6673777777777776 0.22039999999999998 -1.047022222222222 -0.15728888888888887 -2.424844444444444 -0.6497333333333333 -4.059333333333333 -1.5058666666666665 -3.2534666666666663 -1.7041777777777778 -7.233777777777777 -4.695377777777778 -11.127866666666666 -8.589466666666667C8.616 15.595777777777776 5.624888888888889 11.615422222222222 3.920711111111111 8.362044444444443c-0.8562222222222222 -1.6345333333333334 -1.3486222222222222 -3.012311111111111 -1.5058666666666665 -4.059377777777778 -0.16217777777777778 -1.0798222222222222 0.06577777777777777 -1.5127111111111111 0.22039999999999998 -1.6673333333333333Z"></path>
    <path fill="#000000" fill-rule="evenodd" d="M14.17551111111111 17.824533333333335c2.580666666666666 2.580622222222222 5.259644444444444 4.481066666666666 7.2907111111111105 5.310311111111111 0.7341777777777777 0.2996888888888889 1.5637777777777777 0.08257777777777776 2.0867555555555555 -0.5135555555555555 1.5509777777777778 -1.7677777777777777 2.4912444444444444 -4.084666666666666 2.4912444444444444 -6.621244444444444 0 -5.547288888888889 -4.497022222222221 -10.04422222222222 -10.044266666666665 -10.04422222222222 -2.5365333333333333 0 -4.853422222222222 0.9402666666666667 -6.621288888888889 2.4911999999999996 -0.5960444444444444 0.5230222222222223 -0.8132444444444444 1.3525777777777777 -0.513511111111111 2.0867555555555555 0.8292888888888887 2.0310666666666664 2.729733333333333 4.7100888888888885 5.310355555555555 7.290755555555555Z" clip-rule="evenodd" stroke-width="0.4444"></path>
  </g>
  <g id="line">
    <path fill="#000000" d="m11.511333333333333 20.488622222222222 -0.4439111111111111 0.4439111111111111 0.4439111111111111 -0.4439111111111111ZM30.363422222222223 30.363555555555553l-0.4439111111111111 -0.44386666666666663 0.4439111111111111 0.44386666666666663Zm-0.7057777777777777 -6.734044444444444 0.5642666666666667 -0.2750222222222222 -0.5642666666666667 0.2750222222222222Zm-18.590222222222224 -2.6969777777777777c3.998488888888889 3.9985333333333335 8.142 7.130222222222222 11.623822222222222 8.954044444444444 1.7374666666666665 0.9101333333333333 3.3428444444444443 1.5119111111111112 4.703022222222222 1.7161777777777778 1.345111111111111 0.20204444444444444 2.5863555555555555 0.03142222222222222 3.4131111111111108 -0.7952888888888889l-0.8878666666666666 -0.8877777777777778c-0.41275555555555554 0.41275555555555554 -1.1561333333333332 0.6190666666666667 -2.338711111111111 0.4414666666666666 -1.167511111111111 -0.17533333333333334 -2.6328444444444443 -0.7098666666666666 -4.306977777777777 -1.586711111111111 -3.3412444444444445 -1.7502222222222221 -7.384355555555555 -4.795422222222222 -11.31862222222222 -8.729688888888889l-0.8877777777777778 0.8877777777777778ZM1.1925777777777777 1.1926666666666665C0.3658222222222222 2.0193777777777777 0.19519999999999998 3.260622222222222 0.39724444444444446 4.6056888888888885c0.20426666666666665 1.3602222222222222 0.8060444444444445 2.9655555555555555 1.7161333333333333 4.703022222222222 1.8238222222222222 3.481822222222222 4.955555555555556 7.625333333333333 8.954044444444444 11.623822222222222l0.8878222222222222 -0.8877777777777778c-3.934222222222222 -3.9342666666666664 -6.979466666666666 -7.977333333333334 -8.729644444444444 -11.31862222222222 -0.8769333333333333 -1.6741333333333333 -1.4114222222222221 -3.139422222222222 -1.5867555555555555 -4.3068888888888885 -0.17764444444444444 -1.1825777777777777 0.02871111111111111 -1.926 0.4415111111111111 -2.3387999999999995L1.1925777777777777 1.1926666666666665Zm7.452933333333334 0.5854222222222222C7.0582666666666665 1.0045333333333333 5.592711111111111 0.5060888888888889 4.344577777777777 0.36266666666666664 3.1053777777777776 0.2203111111111111 1.966533333333333 0.41866666666666663 1.1925777777777777 1.1926666666666665L2.0803555555555553 2.0804444444444443c0.38613333333333333 -0.38613333333333333 1.0601777777777779 -0.5923111111111111 2.120888888888889 -0.47044444444444444 1.0517777777777777 0.12084444444444442 2.3731555555555555 0.5553777777777777 3.894222222222222 1.2967111111111111l0.5500444444444444 -1.1286222222222222Zm7.354444444444444 1.0388888888888888c-0.23351111111111109 0 -0.46573333333333333 0.0060888888888888885 -0.6963555555555555 0.018088888888888887L15.368888888888888 4.088888888888889c0.20893333333333333 -0.010844444444444445 0.41933333333333334 -0.016355555555555554 0.6310666666666666 -0.016355555555555554v-1.2555555555555555Zm13.183066666666665 13.183066666666665c0 -7.280799999999999 -5.902222222222222 -13.183066666666665 -13.183066666666665 -13.183066666666665v1.2555555555555555c6.587422222222222 0 11.927555555555555 5.340133333333333 11.927555555555555 11.92751111111111h1.255511111111111Zm-0.018088888888888887 0.6963999999999999c0.011999999999999999 -0.2307111111111111 0.018088888888888887 -0.46284444444444445 0.018088888888888887 -0.6963999999999999h-1.255511111111111c0 0.21177777777777776 -0.005511111111111111 0.4221333333333333 -0.0164 0.6310222222222222l1.2538222222222222 0.06537777777777778Zm1.6424444444444444 14.111022222222221c0.7739555555555555 -0.774 0.9722666666666667 -1.9127999999999998 0.8299555555555554 -3.1519999999999997 -0.14337777777777777 -1.2482222222222221 -0.6418222222222222 -2.7137777777777776 -1.4154222222222221 -4.300977777777777L29.09333333333333 23.904533333333333c0.7413333333333333 1.521111111111111 1.1758666666666666 2.8424 1.2966222222222223 3.894222222222222 0.1219111111111111 1.0607555555555555 -0.08426666666666666 1.7347555555555554 -0.47044444444444444 2.1209333333333333l0.8878666666666666 0.8877777777777778ZM27.911111111111108 16.631066666666666c-0.12617777777777778 2.4220444444444444 0.07315555555555554 4.998044444444444 1.1822222222222223 7.273466666666667l1.1285777777777777 -0.5500444444444444c-0.9748888888888887 -2.000222222222222 -1.178222222222222 -4.33 -1.0569777777777778 -6.658044444444444L27.911111111111108 16.631066666666666ZM8.095466666666667 2.906711111111111c2.2754666666666665 1.1090666666666666 4.851422222222221 1.3084 7.273422222222223 1.1822222222222223l-0.06528888888888888 -1.2538666666666667c-2.328133333333333 0.12128888888888888 -4.657822222222222 -0.08208888888888889 -6.658088888888889 -1.0569777777777778l-0.5500444444444444 1.1286222222222222Z" stroke-width="0.4444"></path>
    <path fill="none" stroke="#000000" stroke-linecap="round" stroke-width="0.8889" d="M3.5849777777777776 14.116755555555555c-0.0924 0.6143555555555555 -0.14031111111111108 1.2432444444444444 -0.14031111111111108 1.8832888888888888 0 6.9341333333333335 5.6212 12.555288888888889 12.555288888888889 12.555288888888889 0.7495555555555555 0 1.4837333333333333 -0.06564444444444444 2.1971999999999996 -0.19155555555555553"></path>
  </g>
  <g id="color-foreground">
    <path fill="none" stroke="#e27022" stroke-linecap="round" stroke-miterlimit="10" stroke-width="0.8889" d="M15.999955555555553 26.04431111111111c-5.547288888888889 0 -10.04422222222222 -4.496933333333333 -10.04422222222222 -10.044266666666665"></path>
  </g>
</svg>
